<mxfile host="65bd71144e">
    <diagram id="RA3HMKqNau9g-YnI8GzF" name="Page-1">
        <mxGraphModel dx="559" dy="421" grid="1" gridSize="10" guides="1" tooltips="1" connect="1" arrows="1" fold="1" page="1" pageScale="1" pageWidth="850" pageHeight="1100" math="0" shadow="0">
            <root>
                <mxCell id="0"/>
                <mxCell id="1" parent="0"/>
                <mxCell id="34" style="edgeStyle=none;html=1;exitX=0.5;exitY=1;exitDx=0;exitDy=0;entryX=0.5;entryY=0;entryDx=0;entryDy=0;" edge="1" parent="1" target="38">
                    <mxGeometry relative="1" as="geometry">
                        <mxPoint x="1740" y="214.99999999999977" as="sourcePoint"/>
                    </mxGeometry>
                </mxCell>
                <mxCell id="35" style="edgeStyle=none;html=1;exitX=0.75;exitY=1;exitDx=0;exitDy=0;" edge="1" parent="1" source="38" target="43">
                    <mxGeometry relative="1" as="geometry"/>
                </mxCell>
                <mxCell id="36" style="edgeStyle=none;html=1;exitX=0.25;exitY=1;exitDx=0;exitDy=0;" edge="1" parent="1" source="38" target="40">
                    <mxGeometry relative="1" as="geometry"/>
                </mxCell>
                <mxCell id="37" style="edgeStyle=none;html=1;exitX=1;exitY=0.5;exitDx=0;exitDy=0;entryX=0;entryY=0.5;entryDx=0;entryDy=0;" edge="1" parent="1" source="38" target="58">
                    <mxGeometry relative="1" as="geometry"/>
                </mxCell>
                <mxCell id="38" value="write_sql" style="whiteSpace=wrap;html=1;" vertex="1" parent="1">
                    <mxGeometry x="1680" y="240" width="120" height="60" as="geometry"/>
                </mxCell>
                <mxCell id="39" style="edgeStyle=none;html=1;exitX=0;exitY=0.5;exitDx=0;exitDy=0;entryX=0;entryY=0.5;entryDx=0;entryDy=0;" edge="1" parent="1" source="40">
                    <mxGeometry relative="1" as="geometry">
                        <Array as="points">
                            <mxPoint x="1560" y="360"/>
                            <mxPoint x="1560" y="615"/>
                        </Array>
                        <mxPoint x="1590" y="615" as="targetPoint"/>
                    </mxGeometry>
                </mxCell>
                <mxCell id="40" value="initialize_db" style="whiteSpace=wrap;html=1;" vertex="1" parent="1">
                    <mxGeometry x="1600" y="330" width="120" height="60" as="geometry"/>
                </mxCell>
                <mxCell id="41" style="edgeStyle=none;html=1;exitX=0.5;exitY=1;exitDx=0;exitDy=0;entryX=0.408;entryY=-0.05;entryDx=0;entryDy=0;entryPerimeter=0;" edge="1" parent="1" source="43" target="50">
                    <mxGeometry relative="1" as="geometry"/>
                </mxCell>
                <mxCell id="42" style="edgeStyle=none;html=1;entryX=1;entryY=0.5;entryDx=0;entryDy=0;" edge="1" parent="1">
                    <mxGeometry relative="1" as="geometry">
                        <mxPoint x="2030" y="359.9999999999998" as="sourcePoint"/>
                        <Array as="points">
                            <mxPoint x="2080" y="360"/>
                            <mxPoint x="2080" y="580"/>
                            <mxPoint x="2080" y="615"/>
                        </Array>
                        <mxPoint x="2020" y="615" as="targetPoint"/>
                    </mxGeometry>
                </mxCell>
                <mxCell id="43" value="create_main_dataframe" style="whiteSpace=wrap;html=1;" vertex="1" parent="1">
                    <mxGeometry x="1760" y="330" width="140" height="60" as="geometry"/>
                </mxCell>
                <mxCell id="44" style="edgeStyle=none;html=1;exitX=0;exitY=0.5;exitDx=0;exitDy=0;" edge="1" parent="1" source="45">
                    <mxGeometry relative="1" as="geometry">
                        <mxPoint x="1560" y="449.9999999999998" as="targetPoint"/>
                    </mxGeometry>
                </mxCell>
                <mxCell id="45" value="create_city_table" style="whiteSpace=wrap;html=1;" vertex="1" parent="1">
                    <mxGeometry x="1600" y="430" width="120" height="40" as="geometry"/>
                </mxCell>
                <mxCell id="46" style="edgeStyle=none;html=1;exitX=0;exitY=0.5;exitDx=0;exitDy=0;" edge="1" parent="1" source="47">
                    <mxGeometry relative="1" as="geometry">
                        <mxPoint x="1560" y="509.9999999999998" as="targetPoint"/>
                    </mxGeometry>
                </mxCell>
                <mxCell id="47" value="create_pcat_table" style="whiteSpace=wrap;html=1;" vertex="1" parent="1">
                    <mxGeometry x="1600" y="495" width="120" height="30" as="geometry"/>
                </mxCell>
                <mxCell id="48" style="edgeStyle=none;html=1;exitX=0;exitY=0.5;exitDx=0;exitDy=0;" edge="1" parent="1" source="49">
                    <mxGeometry relative="1" as="geometry">
                        <mxPoint x="1560" y="565" as="targetPoint"/>
                    </mxGeometry>
                </mxCell>
                <mxCell id="49" value="create_weather_table" style="whiteSpace=wrap;html=1;" vertex="1" parent="1">
                    <mxGeometry x="1600" y="550" width="120" height="30" as="geometry"/>
                </mxCell>
                <mxCell id="50" value="save_logfile" style="whiteSpace=wrap;html=1;" vertex="1" parent="1">
                    <mxGeometry x="1780" y="430" width="120" height="40" as="geometry"/>
                </mxCell>
                <mxCell id="51" style="edgeStyle=none;html=1;exitX=1;exitY=0.5;exitDx=0;exitDy=0;" edge="1" parent="1" source="52">
                    <mxGeometry relative="1" as="geometry">
                        <mxPoint x="2080" y="512.4999999999998" as="targetPoint"/>
                    </mxGeometry>
                </mxCell>
                <mxCell id="52" value="convert_datetime" style="whiteSpace=wrap;html=1;" vertex="1" parent="1">
                    <mxGeometry x="1940" y="500" width="100" height="25" as="geometry"/>
                </mxCell>
                <mxCell id="53" style="edgeStyle=none;html=1;" edge="1" parent="1" source="55">
                    <mxGeometry relative="1" as="geometry">
                        <mxPoint x="1780" y="575" as="targetPoint"/>
                    </mxGeometry>
                </mxCell>
                <mxCell id="54" style="edgeStyle=none;html=1;exitX=1;exitY=0.5;exitDx=0;exitDy=0;" edge="1" parent="1" source="55">
                    <mxGeometry relative="1" as="geometry">
                        <mxPoint x="2080" y="575" as="targetPoint"/>
                    </mxGeometry>
                </mxCell>
                <mxCell id="55" value="remove_already_inserted_values_from_dataframe" style="whiteSpace=wrap;html=1;" vertex="1" parent="1">
                    <mxGeometry x="1760" y="560" width="280" height="30" as="geometry"/>
                </mxCell>
                <mxCell id="56" style="edgeStyle=none;html=1;exitX=0;exitY=0.25;exitDx=0;exitDy=0;entryX=1.022;entryY=0.4;entryDx=0;entryDy=0;entryPerimeter=0;" edge="1" parent="1" source="57" target="43">
                    <mxGeometry relative="1" as="geometry"/>
                </mxCell>
                <mxCell id="57" value="test" style="shape=parallelogram;perimeter=parallelogramPerimeter;whiteSpace=wrap;html=1;fixedSize=1;" vertex="1" parent="1">
                    <mxGeometry x="1950" y="345" width="90" height="30" as="geometry"/>
                </mxCell>
                <mxCell id="58" value="date_table" style="whiteSpace=wrap;html=1;" vertex="1" parent="1">
                    <mxGeometry x="1880" y="280" width="150" height="40" as="geometry"/>
                </mxCell>
                <mxCell id="59" value="SQL_functions" style="whiteSpace=wrap;html=1;" vertex="1" parent="1">
                    <mxGeometry x="1680" y="155" width="120" height="60" as="geometry"/>
                </mxCell>
                <mxCell id="60" value="create_cloud_cover_table" style="whiteSpace=wrap;html=1;" vertex="1" parent="1">
                    <mxGeometry x="1590" y="600" width="150" height="30" as="geometry"/>
                </mxCell>
                <mxCell id="61" value="create_unit_table" style="whiteSpace=wrap;html=1;" vertex="1" parent="1">
                    <mxGeometry x="1900" y="600" width="120" height="30" as="geometry"/>
                </mxCell>
            </root>
        </mxGraphModel>
    </diagram>
</mxfile>